<svg version="1.1" id="Layer_1" xmlns="http://www.w3.org/2000/svg" xmlns:xlink="http://www.w3.org/1999/xlink" x="0px" y="0px"
	 width="100%" viewBox="0 0 2000 388" enable-background="new 0 0 2000 388" xml:space="preserve">
<path fill="#000000" opacity="1.000000" stroke="none" 
	d="
M1812.000000,389.000000 
	C1800.645752,389.000000 1789.291504,389.000000 1777.388306,388.656586 
	C1772.596680,384.746094 1768.036499,381.489136 1764.182251,377.542786 
	C1757.607178,370.810577 1751.939819,363.141968 1745.045654,356.783417 
	C1735.293579,347.788757 1723.897583,341.019470 1711.573242,336.000122 
	C1706.359253,333.876587 1700.973755,332.174042 1695.712769,330.296753 
	C1693.984497,334.974426 1695.965698,336.174438 1698.977539,337.001526 
	C1713.596069,341.016113 1726.915527,347.893372 1738.122925,357.918121 
	C1748.222534,366.951843 1757.159912,377.286285 1766.563477,387.091614 
	C1766.951050,387.495697 1766.865356,388.353546 1767.000000,389.000000 
	C1760.312378,389.000000 1753.624634,389.000000 1746.467163,388.644592 
	C1732.658081,371.432709 1715.424927,360.287598 1695.117676,353.281677 
	C1695.117676,355.260925 1695.117676,356.903717 1695.117676,358.494629 
	C1707.834595,363.531158 1719.796997,369.695831 1730.036499,378.672516 
	C1733.432373,381.649597 1736.034912,385.531616 1739.000000,389.000000 
	C1735.307129,389.000000 1731.614136,389.000000 1727.369019,388.653229 
	C1719.990479,384.483826 1713.328857,380.320068 1706.296265,376.924683 
	C1697.436768,372.647186 1688.479858,368.383789 1679.179199,365.264954 
	C1671.312134,362.626923 1662.955078,361.229553 1654.708252,359.994598 
	C1641.520142,358.019745 1628.226318,356.760864 1615.011475,354.948883 
	C1607.831543,353.964325 1600.571533,353.002411 1593.619507,351.058167 
	C1584.890991,348.617126 1576.431519,345.207031 1567.872925,342.166931 
	C1553.439331,337.039825 1540.360962,329.424469 1527.594604,321.021057 
	C1509.957642,309.411774 1497.901855,291.707245 1481.029785,279.341248 
	C1473.953857,274.155029 1467.067383,268.617371 1459.555786,264.144745 
	C1452.057373,259.680054 1443.653564,256.752747 1436.063354,252.421448 
	C1425.379517,246.324799 1414.135620,244.850693 1402.339233,246.384613 
	C1400.884277,251.995468 1402.312134,255.171158 1408.542847,256.397980 
	C1413.769287,257.427032 1418.882935,259.648621 1423.691650,262.052155 
	C1434.401001,267.405151 1444.805786,273.365204 1455.488281,278.774933 
	C1467.296509,284.754730 1476.375610,294.116516 1485.922729,302.863464 
	C1494.000610,310.264313 1501.020508,318.923431 1509.570068,325.683044 
	C1524.675537,337.625946 1541.554688,346.836456 1559.483643,353.992432 
	C1572.009644,358.992035 1584.548096,363.802765 1598.189087,365.139313 
	C1611.452148,366.438843 1624.686646,368.139038 1637.873657,370.072723 
	C1647.600830,371.499176 1657.401855,372.963898 1666.854736,375.559387 
	C1675.381348,377.900543 1683.526001,381.690216 1691.729370,385.104584 
	C1693.403320,385.801361 1694.589233,387.670990 1696.000000,389.000000 
	C1682.645752,389.000000 1669.291504,389.000000 1655.350342,388.628296 
	C1650.818970,387.494019 1646.900391,386.537689 1642.925049,386.004517 
	C1629.869507,384.253418 1616.764771,382.849457 1603.734253,380.936310 
	C1593.860474,379.486603 1583.684814,378.600922 1574.334961,375.427063 
	C1560.465210,370.718903 1546.817139,365.303528 1533.764160,358.241821 
	C1517.432739,349.406433 1503.130127,338.337921 1489.991211,325.402100 
	C1481.936523,317.471741 1473.727905,309.595459 1464.852905,302.632385 
	C1457.664795,296.992737 1449.447266,292.637939 1441.558594,287.927032 
	C1435.211426,284.136719 1428.978149,279.879303 1422.150024,277.234528 
	C1411.331421,273.044067 1400.173462,269.583160 1388.937256,266.668793 
	C1381.306152,264.689484 1373.328979,263.689941 1365.444946,263.144379 
	C1358.147583,262.639435 1355.334473,266.515350 1356.305298,272.382385 
	C1370.381958,275.953918 1384.039917,278.961243 1397.408691,282.940186 
	C1410.706299,286.897888 1423.025757,293.202515 1435.303711,299.770325 
	C1448.816162,306.998383 1461.121582,315.923401 1471.413452,326.747314 
	C1487.690796,343.866394 1505.072021,358.998901 1526.025024,370.121368 
	C1538.910645,376.961456 1552.433228,382.021820 1566.034668,387.032837 
	C1566.824219,387.323761 1567.350952,388.327850 1568.000000,389.000000 
	C1555.979126,389.000000 1543.958130,389.000000 1531.365723,388.642761 
	C1523.864868,384.353851 1517.003906,380.295319 1509.991821,376.517639 
	C1496.457031,369.225922 1485.840454,358.429749 1474.952026,347.910217 
	C1467.843018,341.041962 1461.046021,333.649109 1453.084717,327.913422 
	C1442.009521,319.934387 1430.365479,312.524231 1418.227539,306.310974 
	C1408.549316,301.356781 1397.889771,298.165283 1387.438232,294.925354 
	C1379.194336,292.369812 1370.655640,290.649841 1362.150391,289.090973 
	C1355.912354,287.947601 1349.529907,287.346497 1343.187378,287.072449 
	C1332.351562,286.604309 1327.302856,286.008392 1329.500366,297.685669 
	C1332.908447,298.126038 1336.285889,298.614624 1339.675903,298.989197 
	C1346.155029,299.705200 1352.685669,300.081055 1359.111572,301.115509 
	C1364.954712,302.056091 1370.707275,303.603607 1376.463135,305.030670 
	C1381.944580,306.389648 1387.738037,307.181274 1392.759277,309.561768 
	C1403.275635,314.547394 1413.508179,320.181671 1423.601318,325.994080 
	C1431.299561,330.427277 1439.223511,334.814941 1445.944214,340.521667 
	C1457.206665,350.084900 1467.404785,360.890076 1478.416992,370.764191 
	C1484.556519,376.269287 1491.462524,380.915527 1497.949463,386.041870 
	C1498.849854,386.753479 1499.326904,388.000732 1500.000000,389.000031 
	C1492.979004,389.000000 1485.958130,389.000000 1478.466919,388.625244 
	C1476.989990,387.126282 1476.042236,385.941803 1474.966675,384.887756 
	C1468.098389,378.156555 1461.524170,371.077545 1454.231445,364.839783 
	C1445.580078,357.439850 1436.626709,350.291412 1427.198486,343.931793 
	C1418.878418,338.319611 1409.969727,333.418945 1400.868530,329.173950 
	C1392.683960,325.356476 1383.938232,322.695160 1375.335693,319.838409 
	C1370.492065,318.229950 1365.489502,316.960938 1360.463745,316.076904 
	C1354.703857,315.063660 1348.844116,314.597565 1343.018677,313.980988 
	C1333.282959,312.950592 1323.537964,312.009491 1313.801025,310.990753 
	C1308.923340,310.480347 1307.767822,313.840424 1307.103516,317.506195 
	C1306.795166,319.207886 1307.050903,321.011810 1307.050903,322.692169 
	C1313.767456,323.150818 1319.997070,323.494019 1326.210938,324.022308 
	C1333.201782,324.616730 1340.328735,324.700867 1347.129395,326.210449 
	C1360.490845,329.176361 1373.874878,332.369141 1386.194214,338.672058 
	C1398.681641,345.061035 1411.623901,350.770874 1423.376831,358.319763 
	C1432.935547,364.459198 1441.135498,372.758728 1449.714111,380.353241 
	C1452.506104,382.825043 1454.591431,386.095062 1457.000000,389.000000 
	C1451.645020,389.000000 1446.290161,389.000000 1440.383301,388.653992 
	C1432.271606,379.603424 1422.760620,373.170288 1412.912842,367.716858 
	C1399.285767,360.170532 1384.973511,353.813721 1370.727905,347.455811 
	C1365.081299,344.935791 1358.919434,343.297028 1352.825439,342.121185 
	C1345.027588,340.616547 1337.077637,339.823334 1329.163452,339.015656 
	C1317.943481,337.870697 1306.693115,337.028687 1295.463013,335.978943 
	C1291.817627,335.638184 1290.743530,338.192230 1290.093750,340.806671 
	C1289.633789,342.657715 1290.004639,344.715240 1290.004639,346.916809 
	C1294.800781,347.645599 1299.244019,348.782440 1303.717773,348.918823 
	C1320.958496,349.444397 1337.980347,351.047089 1354.355835,356.970795 
	C1362.576538,359.944611 1371.222656,361.995422 1379.035767,365.784698 
	C1391.247437,371.707153 1402.942627,378.702789 1414.766724,385.402374 
	C1415.844482,386.013123 1416.270996,387.773499 1417.000000,389.000000 
	C1409.312378,389.000000 1401.624878,389.000000 1393.380249,388.657104 
	C1389.232422,386.692780 1385.626831,385.103455 1382.053955,383.443207 
	C1374.615967,379.986816 1367.444092,375.750183 1359.718140,373.161835 
	C1340.968994,366.880432 1321.763550,362.536255 1301.773804,362.973816 
	C1300.821045,362.994659 1299.866089,362.595093 1298.901978,362.467041 
	C1292.622803,361.632935 1286.347046,360.765442 1280.051880,360.074432 
	C1279.333618,359.995575 1278.526245,360.989349 1277.720093,361.408813 
	C1272.868408,363.933533 1275.748535,368.167145 1274.973145,371.899780 
	C1281.691650,372.630524 1287.982300,373.364410 1294.283813,373.987000 
	C1301.596924,374.709503 1309.047485,374.699036 1316.209473,376.142334 
	C1328.626587,378.644592 1340.895874,381.912598 1353.151367,385.147095 
	C1354.979248,385.629517 1356.394043,387.676697 1358.000000,389.000000 
	C1334.645752,389.000000 1311.291504,389.000000 1287.322144,388.606750 
	C1279.780762,387.476135 1272.864502,386.573578 1265.918945,386.154236 
	C1264.674438,386.079071 1263.309448,388.000458 1262.000000,389.000000 
	C841.715454,389.000000 421.430939,389.000000 1.073207,389.000000 
	C1.073207,259.730530 1.073207,130.460999 1.073207,1.095733 
	C667.666687,1.095733 1334.333374,1.095733 2001.000000,1.095733 
	C2001.000000,38.071732 2001.000000,75.067207 2000.592529,112.531258 
	C1996.859985,112.697174 1992.655273,110.387383 1992.154175,116.630310 
	C1995.087646,117.084518 1998.043823,117.542259 2001.000000,118.000000 
	C2001.000000,123.354927 2001.000000,128.709854 2000.590698,134.527954 
	C1995.459106,134.176773 1990.653076,133.677689 1986.039795,132.452942 
	C1982.015991,131.384705 1979.217163,132.050842 1977.154907,136.026581 
	C1985.279541,137.380432 1993.139771,138.690216 2001.000000,140.000000 
	C2001.000000,145.022095 2001.000000,150.044189 2000.585571,155.533417 
	C1997.382812,155.333832 1994.623291,154.487732 1991.800537,154.035995 
	C1984.951172,152.939819 1978.049927,152.158829 1971.212769,150.996613 
	C1966.227417,150.149155 1963.810181,151.296692 1962.719482,154.774460 
	C1972.765991,156.500778 1982.956421,158.208191 1993.126587,160.029068 
	C1995.783569,160.504791 1998.377197,161.333450 2001.000000,162.000000 
	C2001.000000,167.688034 2001.000000,173.376083 2000.682739,179.842743 
	C1999.281128,180.293457 1998.133301,180.098923 1997.121948,179.617584 
	C1983.225952,173.003998 1968.543701,170.322357 1953.247925,171.091187 
	C1950.699341,171.219284 1948.211426,172.551422 1945.695435,173.327179 
	C1945.801636,173.803574 1945.907959,174.279968 1946.014160,174.756363 
	C1947.528320,175.170761 1949.023193,175.835495 1950.560181,175.954926 
	C1956.288086,176.400009 1962.110596,176.180450 1967.746826,177.117493 
	C1975.461304,178.400070 1983.071777,180.379349 1990.659180,182.324173 
	C1994.188354,183.228790 1997.557983,184.755341 2001.000000,186.000000 
	C2001.000000,192.021149 2001.000000,198.042297 2000.622559,204.529968 
	C1998.795654,204.327759 1997.332275,203.687698 1995.899170,202.985794 
	C1984.424927,197.365723 1972.739624,192.566116 1959.700195,191.931625 
	C1954.014893,191.654984 1948.374146,190.271637 1942.694580,190.127304 
	C1938.193481,190.012955 1932.586426,187.992645 1929.673218,195.109055 
	C1937.489990,195.418945 1944.863037,195.319077 1952.139526,196.108215 
	C1959.657349,196.923553 1967.329346,197.823349 1974.484009,200.100159 
	C1983.559814,202.988312 1992.182129,207.301392 2001.000000,211.000000 
	C2001.000000,217.021149 2001.000000,223.042297 2000.698853,229.822617 
	C1998.131348,229.361572 1995.794067,228.255920 1993.609863,226.903076 
	C1976.123291,216.071671 1957.177856,210.618423 1936.546143,210.935364 
	C1931.644043,211.010651 1926.462280,211.123230 1921.895264,209.680038 
	C1917.239136,208.208618 1915.774780,210.304428 1913.468384,214.035522 
	C1925.080811,214.717468 1936.085449,214.728699 1946.893433,216.193039 
	C1956.062012,217.435318 1965.374756,219.412399 1973.945312,222.787262 
	C1983.368042,226.497726 1992.015015,232.177994 2001.000000,237.000000 
	C2001.000000,287.597321 2001.000000,338.194641 2001.000000,389.000000 
	C1945.312622,389.000000 1889.624878,389.000000 1833.342285,388.623016 
	C1824.224609,385.492981 1815.496460,383.242401 1807.228027,379.866272 
	C1795.522095,375.086365 1784.520142,368.785828 1775.456055,359.812378 
	C1769.276489,353.694641 1764.187378,346.441528 1757.806030,340.570770 
	C1751.026733,334.333923 1743.760132,328.353027 1735.874512,323.657135 
	C1724.147827,316.673889 1711.537842,311.315552 1697.881836,309.029877 
	C1697.319214,308.935699 1696.692871,309.221771 1696.122070,309.325989 
	C1696.122070,310.911163 1696.122070,312.209259 1696.122070,313.484497 
	C1699.146240,314.345062 1702.054932,315.166443 1704.960083,316.000488 
	C1721.096436,320.633209 1736.040771,327.651306 1748.475098,339.106842 
	C1754.567627,344.719849 1759.940186,351.113983 1765.644897,357.148468 
	C1777.967651,370.183258 1792.298218,380.169281 1809.328857,386.140350 
	C1810.419434,386.522675 1811.118652,388.020905 1812.000000,389.000000 
M1646.169678,342.958313 
	C1648.689087,334.892395 1646.044556,332.595734 1639.965454,331.158875 
	C1634.455078,329.856476 1628.691162,329.232483 1623.019043,329.086609 
	C1608.516602,328.713623 1595.454468,322.918335 1582.119263,318.398895 
	C1574.974243,315.977325 1568.576050,311.437592 1561.633057,308.315796 
	C1549.017090,302.643402 1537.661011,295.100800 1527.440430,285.878723 
	C1521.033447,280.097778 1514.037476,276.469208 1503.574463,277.187073 
	C1505.297363,281.498962 1505.844971,285.712067 1508.209717,288.192932 
	C1513.073853,293.295807 1518.796387,297.616455 1524.367798,302.002167 
	C1538.945557,313.477600 1555.177612,322.024017 1572.377930,328.861603 
	C1583.557373,333.305756 1594.767090,337.213531 1606.778687,339.243378 
	C1619.559326,341.403137 1632.257568,343.249969 1646.169678,342.958313 
M1600.063354,309.583282 
	C1607.154053,311.350708 1614.244873,313.118134 1621.250977,314.864441 
	C1623.170410,308.686249 1621.562134,305.178223 1616.913574,303.013702 
	C1612.285400,300.858612 1607.813843,298.256653 1603.014160,296.603668 
	C1593.413208,293.297089 1583.541504,291.059570 1572.002075,290.951172 
	C1573.148071,294.502777 1573.270874,298.858063 1575.040527,299.683655 
	C1582.909912,303.355133 1591.250854,306.015900 1600.063354,309.583282 
M1919.011963,319.519928 
	C1923.394775,321.022461 1927.921265,322.210358 1932.116699,324.123657 
	C1935.696899,325.756287 1937.404053,324.301270 1939.142334,321.684998 
	C1937.232544,320.872589 1935.605469,320.205872 1933.998779,319.492920 
	C1921.030029,313.738617 1907.552246,310.246429 1893.283936,309.965240 
	C1886.376831,309.829132 1879.426758,309.743652 1872.584473,308.909973 
	C1860.209595,307.402100 1848.783081,302.786438 1837.657715,296.968018 
	C1837.098389,297.484253 1836.527466,298.074829 1835.890137,298.582245 
	C1835.230103,299.107727 1834.505615,299.552460 1833.429443,300.294586 
	C1834.750366,301.074860 1835.551270,301.585541 1836.385132,302.034882 
	C1852.489624,310.713135 1869.725220,314.514862 1887.978760,315.175446 
	C1898.129639,315.542816 1908.216064,317.688965 1919.011963,319.519928 
M1916.652466,296.996887 
	C1918.717041,297.320038 1920.889648,297.335693 1922.828003,298.017761 
	C1933.061157,301.618835 1943.235107,305.387787 1953.813477,309.238220 
	C1954.231567,308.631104 1955.195679,307.231323 1956.080933,305.946045 
	C1953.355103,304.488373 1950.874268,303.127380 1948.363281,301.824585 
	C1932.239624,293.458984 1914.863403,290.242584 1896.934814,290.090149 
	C1881.644165,289.960175 1867.298828,286.338531 1853.194336,280.241272 
	C1852.092896,281.467285 1850.926514,282.765533 1849.050049,284.854126 
	C1857.278687,287.402191 1864.567627,290.536865 1872.167603,291.801941 
	C1882.919434,293.591675 1893.908936,293.923187 1904.779663,295.043884 
	C1908.464966,295.423859 1912.098511,296.307098 1916.652466,296.996887 
M1952.010986,279.516632 
	C1938.390381,272.705933 1923.720337,270.426544 1908.745972,270.083344 
	C1896.624634,269.805603 1884.621704,269.014862 1873.259521,264.559723 
	C1869.288696,263.002747 1867.431519,263.987122 1865.831299,267.566589 
	C1879.427124,272.687714 1893.115112,275.611328 1907.461182,275.015198 
	C1918.316284,274.564117 1928.932861,276.299805 1939.031372,280.092926 
	C1947.413086,283.241119 1955.390625,287.453552 1963.638184,290.982269 
	C1964.998291,291.564178 1966.825806,291.053741 1968.437256,291.048126 
	C1968.179443,289.777893 1968.330688,287.758453 1967.597900,287.358582 
	C1962.726685,284.699982 1957.666260,282.387909 1952.010986,279.516632 
M1912.412354,255.000000 
	C1936.772461,254.896515 1959.223389,261.243805 1979.096436,275.023132 
	C1983.502441,272.437744 1982.207886,270.399811 1979.034302,268.546082 
	C1976.400513,267.007629 1973.785522,265.426361 1971.080078,264.022644 
	C1952.358276,254.309128 1932.535522,249.610306 1911.347900,249.811798 
	C1903.679565,249.884735 1895.898315,248.216415 1888.351440,246.526047 
	C1884.781860,245.726532 1883.233521,246.496735 1881.776733,249.661041 
	C1891.457031,253.721039 1901.365845,254.846710 1912.412354,255.000000 
M1916.437012,229.999924 
	C1912.245605,229.469254 1907.987427,229.237442 1903.881836,228.322189 
	C1899.935181,227.442383 1898.457275,229.023117 1897.773438,233.270752 
	C1910.302124,234.196091 1922.502686,235.348907 1934.730469,235.921570 
	C1944.703857,236.388611 1954.333496,238.467560 1963.387451,242.267136 
	C1973.267578,246.413483 1982.658081,251.726639 1992.661377,256.730927 
	C1993.290771,256.195129 1994.369507,255.276657 1995.847900,254.017929 
	C1994.001465,252.759842 1992.841431,251.963547 1991.675415,251.176117 
	C1972.168213,238.002594 1951.044678,230.059189 1927.106079,230.937805 
	C1923.874634,231.056412 1920.612183,230.333435 1916.437012,229.999924 
M1902.388428,331.997894 
	C1901.322754,331.666260 1900.273438,331.119690 1899.188721,331.036774 
	C1889.699585,330.310974 1880.206665,329.161072 1870.709961,329.112396 
	C1854.008911,329.026825 1839.287842,322.745270 1825.005859,315.236084 
	C1821.170288,313.219482 1819.802124,314.441010 1817.601318,317.216827 
	C1820.025513,318.479919 1822.132812,319.552124 1824.216797,320.667755 
	C1842.868286,330.653137 1862.653564,335.729919 1883.922485,335.117615 
	C1888.879272,334.974945 1893.862427,336.574188 1898.863525,336.882019 
	C1902.881226,337.129395 1906.944580,336.636047 1910.987793,336.471375 
	C1911.040405,335.793152 1911.093140,335.114929 1911.145874,334.436707 
	C1908.516479,333.635620 1905.887207,332.834564 1902.388428,331.997894 
M1748.009521,311.506470 
	C1754.959839,317.150665 1761.910034,322.794861 1769.849609,329.242493 
	C1768.898071,325.843323 1768.935547,322.752991 1767.410034,321.157715 
	C1763.487305,317.055847 1759.013184,313.433563 1754.504883,309.949036 
	C1743.462158,301.414246 1730.803711,295.887299 1717.728516,291.441071 
	C1711.888184,289.455078 1705.595215,288.800201 1699.185059,287.474487 
	C1699.185059,289.811432 1699.185059,291.227081 1699.185059,292.609802 
	C1717.818481,295.887177 1729.348145,300.060577 1748.009521,311.506470 
M1805.337402,329.036102 
	C1803.780029,329.917938 1802.222534,330.799744 1799.688354,332.234680 
	C1808.291138,336.781006 1815.609985,341.119354 1823.312134,344.612488 
	C1835.889648,350.316864 1848.906128,354.631470 1863.043579,354.021118 
	C1866.034058,353.892029 1869.362915,353.205017 1871.960327,354.231384 
	C1876.453369,356.006775 1877.721069,352.843018 1881.297363,350.000122 
	C1878.534058,350.000122 1877.276489,350.076019 1876.030518,349.988007 
	C1866.870483,349.340790 1857.503662,349.650696 1848.600708,347.770844 
	C1833.303589,344.540894 1819.081909,338.132477 1805.337402,329.036102 
M1737.471558,280.999390 
	C1749.953491,286.101624 1761.187012,293.230804 1771.186523,302.342194 
	C1774.984863,298.524323 1772.272583,296.147095 1769.778198,294.405212 
	C1762.654053,289.430023 1755.699585,283.961548 1747.945068,280.198364 
	C1736.732178,274.756897 1725.329224,269.485992 1712.371826,268.758911 
	C1708.315430,268.531281 1705.057739,267.110809 1704.039307,272.693024 
	C1715.537231,273.355682 1726.414062,275.974915 1737.471558,280.999390 
M1788.085693,343.019684 
	C1786.345337,343.461731 1784.604980,343.903748 1782.864624,344.345764 
	C1782.685913,344.962036 1782.507202,345.578308 1782.328491,346.194580 
	C1791.751099,351.797302 1800.961914,357.803070 1810.652710,362.895416 
	C1821.500366,368.595612 1833.064697,372.134979 1845.451416,373.498962 
	C1850.024658,374.002563 1851.588501,372.032532 1853.913086,369.407501 
	C1851.085571,368.851196 1848.174927,369.468842 1845.649902,368.743530 
	C1835.092041,365.710754 1824.258789,363.155701 1814.281372,358.725586 
	C1805.283936,354.730560 1797.269775,348.520874 1788.085693,343.019684 
M1752.489502,257.999329 
	C1742.627686,253.059235 1732.106812,250.480850 1721.299438,248.477356 
	C1716.838013,247.650299 1714.921875,248.412354 1713.961304,252.897690 
	C1738.042358,254.847092 1758.648926,264.723755 1777.134277,279.158386 
	C1780.330566,275.546967 1779.039185,273.192871 1775.687500,271.234131 
	C1768.201538,266.859100 1760.744141,262.435303 1752.489502,257.999329 
M1780.351440,248.032013 
	C1766.984497,239.917877 1753.044189,233.249557 1737.617920,229.871338 
	C1733.669434,229.006622 1731.883057,230.627075 1729.485352,233.597046 
	C1749.711182,236.660339 1767.136475,245.012131 1783.323242,256.648071 
	C1784.038696,254.450333 1784.517944,252.977997 1784.900757,251.802109 
	C1783.422729,250.547012 1782.197998,249.506958 1780.351440,248.032013 
M1770.693604,223.966141 
	C1776.383179,226.833572 1782.072876,229.700989 1787.762451,232.568420 
	C1788.178467,232.215210 1788.594482,231.862000 1789.010376,231.508804 
	C1787.655396,229.500229 1786.760010,226.688843 1784.873413,225.608505 
	C1767.744019,215.799759 1766.035034,213.883698 1757.968994,218.082138 
	C1762.031494,219.921677 1766.031250,221.732849 1770.693604,223.966141 
z"/>
<path fill="#FEFEFE" opacity="1.000000" stroke="none" 
	d="
M1696.468628,389.000000 
	C1694.589233,387.670990 1693.403320,385.801361 1691.729370,385.104584 
	C1683.526001,381.690216 1675.381348,377.900543 1666.854736,375.559387 
	C1657.401855,372.963898 1647.600830,371.499176 1637.873657,370.072723 
	C1624.686646,368.139038 1611.452148,366.438843 1598.189087,365.139313 
	C1584.548096,363.802765 1572.009644,358.992035 1559.483643,353.992432 
	C1541.554688,346.836456 1524.675537,337.625946 1509.570068,325.683044 
	C1501.020508,318.923431 1494.000610,310.264313 1485.922729,302.863464 
	C1476.375610,294.116516 1467.296509,284.754730 1455.488281,278.774933 
	C1444.805786,273.365204 1434.401001,267.405151 1423.691650,262.052155 
	C1418.882935,259.648621 1413.769287,257.427032 1408.542847,256.397980 
	C1402.312134,255.171158 1400.884277,251.995468 1402.339233,246.384613 
	C1414.135620,244.850693 1425.379517,246.324799 1436.063354,252.421448 
	C1443.653564,256.752747 1452.057373,259.680054 1459.555786,264.144745 
	C1467.067383,268.617371 1473.953857,274.155029 1481.029785,279.341248 
	C1497.901855,291.707245 1509.957642,309.411774 1527.594604,321.021057 
	C1540.360962,329.424469 1553.439331,337.039825 1567.872925,342.166931 
	C1576.431519,345.207031 1584.890991,348.617126 1593.619507,351.058167 
	C1600.571533,353.002411 1607.831543,353.964325 1615.011475,354.948883 
	C1628.226318,356.760864 1641.520142,358.019745 1654.708252,359.994598 
	C1662.955078,361.229553 1671.312134,362.626923 1679.179199,365.264954 
	C1688.479858,368.383789 1697.436768,372.647186 1706.296265,376.924683 
	C1713.328857,380.320068 1719.990479,384.483826 1726.908447,388.653229 
	C1716.979126,389.000000 1706.958130,389.000000 1696.468628,389.000000 
z"/>
<path fill="#FEFEFE" opacity="1.000000" stroke="none" 
	d="
M1568.468628,389.000000 
	C1567.350952,388.327850 1566.824219,387.323761 1566.034668,387.032837 
	C1552.433228,382.021820 1538.910645,376.961456 1526.025024,370.121368 
	C1505.072021,358.998901 1487.690796,343.866394 1471.413452,326.747314 
	C1461.121582,315.923401 1448.816162,306.998383 1435.303711,299.770325 
	C1423.025757,293.202515 1410.706299,286.897888 1397.408691,282.940186 
	C1384.039917,278.961243 1370.381958,275.953918 1356.305298,272.382385 
	C1355.334473,266.515350 1358.147583,262.639435 1365.444946,263.144379 
	C1373.328979,263.689941 1381.306152,264.689484 1388.937256,266.668793 
	C1400.173462,269.583160 1411.331421,273.044067 1422.150024,277.234528 
	C1428.978149,279.879303 1435.211426,284.136719 1441.558594,287.927032 
	C1449.447266,292.637939 1457.664795,296.992737 1464.852905,302.632385 
	C1473.727905,309.595459 1481.936523,317.471741 1489.991211,325.402100 
	C1503.130127,338.337921 1517.432739,349.406433 1533.764160,358.241821 
	C1546.817139,365.303528 1560.465210,370.718903 1574.334961,375.427063 
	C1583.684814,378.600922 1593.860474,379.486603 1603.734253,380.936310 
	C1616.764771,382.849457 1629.869507,384.253418 1642.925049,386.004517 
	C1646.900391,386.537689 1650.818970,387.494019 1654.881836,388.628296 
	C1626.312378,389.000000 1597.624878,389.000000 1568.468628,389.000000 
z"/>
<path fill="#FEFEFE" opacity="1.000000" stroke="none" 
	d="
M1500.468506,389.000031 
	C1499.326904,388.000732 1498.849854,386.753479 1497.949463,386.041870 
	C1491.462524,380.915527 1484.556519,376.269287 1478.416992,370.764191 
	C1467.404785,360.890076 1457.206665,350.084900 1445.944214,340.521667 
	C1439.223511,334.814941 1431.299561,330.427277 1423.601318,325.994080 
	C1413.508179,320.181671 1403.275635,314.547394 1392.759277,309.561768 
	C1387.738037,307.181274 1381.944580,306.389648 1376.463135,305.030670 
	C1370.707275,303.603607 1364.954712,302.056091 1359.111572,301.115509 
	C1352.685669,300.081055 1346.155029,299.705200 1339.675903,298.989197 
	C1336.285889,298.614624 1332.908447,298.126038 1329.500366,297.685669 
	C1327.302856,286.008392 1332.351562,286.604309 1343.187378,287.072449 
	C1349.529907,287.346497 1355.912354,287.947601 1362.150391,289.090973 
	C1370.655640,290.649841 1379.194336,292.369812 1387.438232,294.925354 
	C1397.889771,298.165283 1408.549316,301.356781 1418.227539,306.310974 
	C1430.365479,312.524231 1442.009521,319.934387 1453.084717,327.913422 
	C1461.046021,333.649109 1467.843018,341.041962 1474.952026,347.910217 
	C1485.840454,358.429749 1496.457031,369.225922 1509.991821,376.517639 
	C1517.003906,380.295319 1523.864868,384.353851 1530.896973,388.642761 
	C1520.979126,389.000000 1510.958130,389.000000 1500.468506,389.000031 
z"/>
<path fill="#FEFEFE" opacity="1.000000" stroke="none" 
	d="
M1457.468506,389.000000 
	C1454.591431,386.095062 1452.506104,382.825043 1449.714111,380.353241 
	C1441.135498,372.758728 1432.935547,364.459198 1423.376831,358.319763 
	C1411.623901,350.770874 1398.681641,345.061035 1386.194214,338.672058 
	C1373.874878,332.369141 1360.490845,329.176361 1347.129395,326.210449 
	C1340.328735,324.700867 1333.201782,324.616730 1326.210938,324.022308 
	C1319.997070,323.494019 1313.767456,323.150818 1307.050903,322.692169 
	C1307.050903,321.011810 1306.795166,319.207886 1307.103516,317.506195 
	C1307.767822,313.840424 1308.923340,310.480347 1313.801025,310.990753 
	C1323.537964,312.009491 1333.282959,312.950592 1343.018677,313.980988 
	C1348.844116,314.597565 1354.703857,315.063660 1360.463745,316.076904 
	C1365.489502,316.960938 1370.492065,318.229950 1375.335693,319.838409 
	C1383.938232,322.695160 1392.683960,325.356476 1400.868530,329.173950 
	C1409.969727,333.418945 1418.878418,338.319611 1427.198486,343.931793 
	C1436.626709,350.291412 1445.580078,357.439850 1454.231445,364.839783 
	C1461.524170,371.077545 1468.098389,378.156555 1474.966675,384.887756 
	C1476.042236,385.941803 1476.989990,387.126282 1477.998291,388.625244 
	C1471.312378,389.000000 1464.624634,389.000000 1457.468506,389.000000 
z"/>
<path fill="#FEFEFE" opacity="1.000000" stroke="none" 
	d="
M1417.468628,389.000000 
	C1416.270996,387.773499 1415.844482,386.013123 1414.766724,385.402374 
	C1402.942627,378.702789 1391.247437,371.707153 1379.035767,365.784698 
	C1371.222656,361.995422 1362.576538,359.944611 1354.355835,356.970795 
	C1337.980347,351.047089 1320.958496,349.444397 1303.717773,348.918823 
	C1299.244019,348.782440 1294.800781,347.645599 1290.004639,346.916809 
	C1290.004639,344.715240 1289.633789,342.657715 1290.093750,340.806671 
	C1290.743530,338.192230 1291.817627,335.638184 1295.463013,335.978943 
	C1306.693115,337.028687 1317.943481,337.870697 1329.163452,339.015656 
	C1337.077637,339.823334 1345.027588,340.616547 1352.825439,342.121185 
	C1358.919434,343.297028 1365.081299,344.935791 1370.727905,347.455811 
	C1384.973511,353.813721 1399.285767,360.170532 1412.912842,367.716858 
	C1422.760620,373.170288 1432.271606,379.603424 1439.915771,388.653992 
	C1432.645752,389.000000 1425.291504,389.000000 1417.468628,389.000000 
z"/>
<path fill="#FEFEFE" opacity="1.000000" stroke="none" 
	d="
M1358.468628,389.000000 
	C1356.394043,387.676697 1354.979248,385.629517 1353.151367,385.147095 
	C1340.895874,381.912598 1328.626587,378.644592 1316.209473,376.142334 
	C1309.047485,374.699036 1301.596924,374.709503 1294.283813,373.987000 
	C1287.982300,373.364410 1281.691650,372.630524 1274.973145,371.899780 
	C1275.748535,368.167145 1272.868408,363.933533 1277.720093,361.408813 
	C1278.526245,360.989349 1279.333618,359.995575 1280.051880,360.074432 
	C1286.347046,360.765442 1292.622803,361.632935 1298.901978,362.467041 
	C1299.866089,362.595093 1300.821045,362.994659 1301.773804,362.973816 
	C1321.763550,362.536255 1340.968994,366.880432 1359.718140,373.161835 
	C1367.444092,375.750183 1374.615967,379.986816 1382.053955,383.443207 
	C1385.626831,385.103455 1389.232422,386.692780 1392.911621,388.657104 
	C1381.645752,389.000000 1370.291504,389.000000 1358.468628,389.000000 
z"/>
<path fill="#FFFFFF" opacity="1.000000" stroke="none" 
	d="
M1812.468506,389.000000 
	C1811.118652,388.020905 1810.419434,386.522675 1809.328857,386.140350 
	C1792.298218,380.169281 1777.967651,370.183258 1765.644897,357.148468 
	C1759.940186,351.113983 1754.567627,344.719849 1748.475098,339.106842 
	C1736.040771,327.651306 1721.096436,320.633209 1704.960083,316.000488 
	C1702.054932,315.166443 1699.146240,314.345062 1696.122070,313.484497 
	C1696.122070,312.209259 1696.122070,310.911163 1696.122070,309.325989 
	C1696.692871,309.221771 1697.319214,308.935699 1697.881836,309.029877 
	C1711.537842,311.315552 1724.147827,316.673889 1735.874512,323.657135 
	C1743.760132,328.353027 1751.026733,334.333923 1757.806030,340.570770 
	C1764.187378,346.441528 1769.276489,353.694641 1775.456055,359.812378 
	C1784.520142,368.785828 1795.522095,375.086365 1807.228027,379.866272 
	C1815.496460,383.242401 1824.224609,385.492981 1832.873779,388.623016 
	C1826.312378,389.000000 1819.624634,389.000000 1812.468506,389.000000 
z"/>
<path fill="#FFFFFF" opacity="1.000000" stroke="none" 
	d="
M1767.454102,389.000000 
	C1766.865356,388.353546 1766.951050,387.495697 1766.563477,387.091614 
	C1757.159912,377.286285 1748.222534,366.951843 1738.122925,357.918121 
	C1726.915527,347.893372 1713.596069,341.016113 1698.977539,337.001526 
	C1695.965698,336.174438 1693.984497,334.974426 1695.712769,330.296753 
	C1700.973755,332.174042 1706.359253,333.876587 1711.573242,336.000122 
	C1723.897583,341.019470 1735.293579,347.788757 1745.045654,356.783417 
	C1751.939819,363.141968 1757.607178,370.810577 1764.182251,377.542786 
	C1768.036499,381.489136 1772.596680,384.746094 1776.919678,388.656586 
	C1773.969360,389.000000 1770.938843,389.000000 1767.454102,389.000000 
z"/>
<path fill="#FFFFFF" opacity="1.000000" stroke="none" 
	d="
M2001.000000,236.562500 
	C1992.015015,232.177994 1983.368042,226.497726 1973.945312,222.787262 
	C1965.374756,219.412399 1956.062012,217.435318 1946.893433,216.193039 
	C1936.085449,214.728699 1925.080811,214.717468 1913.468384,214.035522 
	C1915.774780,210.304428 1917.239136,208.208618 1921.895264,209.680038 
	C1926.462280,211.123230 1931.644043,211.010651 1936.546143,210.935364 
	C1957.177856,210.618423 1976.123291,216.071671 1993.609863,226.903076 
	C1995.794067,228.255920 1998.131348,229.361572 2000.698853,230.290894 
	C2001.000000,232.041672 2001.000000,234.083328 2001.000000,236.562500 
z"/>
<path fill="#FFFFFF" opacity="1.000000" stroke="none" 
	d="
M2001.000000,210.571533 
	C1992.182129,207.301392 1983.559814,202.988312 1974.484009,200.100159 
	C1967.329346,197.823349 1959.657349,196.923553 1952.139526,196.108215 
	C1944.863037,195.319077 1937.489990,195.418945 1929.673218,195.109055 
	C1932.586426,187.992645 1938.193481,190.012955 1942.694580,190.127304 
	C1948.374146,190.271637 1954.014893,191.654984 1959.700195,191.931625 
	C1972.739624,192.566116 1984.424927,197.365723 1995.899170,202.985794 
	C1997.332275,203.687698 1998.795654,204.327759 2000.622559,204.998245 
	C2001.000000,206.714355 2001.000000,208.428711 2001.000000,210.571533 
z"/>
<path fill="#FFFFFF" opacity="1.000000" stroke="none" 
	d="
M1739.437500,389.000000 
	C1736.034912,385.531616 1733.432373,381.649597 1730.036499,378.672516 
	C1719.796997,369.695831 1707.834595,363.531158 1695.117676,358.494629 
	C1695.117676,356.903717 1695.117676,355.260925 1695.117676,353.281677 
	C1715.424927,360.287598 1732.658081,371.432709 1745.998657,388.644592 
	C1743.958374,389.000000 1741.916626,389.000000 1739.437500,389.000000 
z"/>
<path fill="#FFFFFF" opacity="1.000000" stroke="none" 
	d="
M2001.000000,185.571533 
	C1997.557983,184.755341 1994.188354,183.228790 1990.659180,182.324173 
	C1983.071777,180.379349 1975.461304,178.400070 1967.746826,177.117493 
	C1962.110596,176.180450 1956.288086,176.400009 1950.560181,175.954926 
	C1949.023193,175.835495 1947.528320,175.170761 1946.014160,174.756363 
	C1945.907959,174.279968 1945.801636,173.803574 1945.695435,173.327179 
	C1948.211426,172.551422 1950.699341,171.219284 1953.247925,171.091187 
	C1968.543701,170.322357 1983.225952,173.003998 1997.121948,179.617584 
	C1998.133301,180.098923 1999.281128,180.293457 2000.682739,180.310684 
	C2001.000000,181.714355 2001.000000,183.428711 2001.000000,185.571533 
z"/>
<path fill="#FFFFFF" opacity="1.000000" stroke="none" 
	d="
M2001.000000,161.571533 
	C1998.377197,161.333450 1995.783569,160.504791 1993.126587,160.029068 
	C1982.956421,158.208191 1972.765991,156.500778 1962.719482,154.774460 
	C1963.810181,151.296692 1966.227417,150.149155 1971.212769,150.996613 
	C1978.049927,152.158829 1984.951172,152.939819 1991.800537,154.035995 
	C1994.623291,154.487732 1997.382812,155.333832 2000.585571,156.000275 
	C2001.000000,157.714355 2001.000000,159.428711 2001.000000,161.571533 
z"/>
<path fill="#FFFFFF" opacity="1.000000" stroke="none" 
	d="
M2001.000000,139.583344 
	C1993.139771,138.690216 1985.279541,137.380432 1977.154907,136.026581 
	C1979.217163,132.050842 1982.015991,131.384705 1986.039795,132.452942 
	C1990.653076,133.677689 1995.459106,134.176773 2000.590698,134.995560 
	C2001.000000,136.388885 2001.000000,137.777786 2001.000000,139.583344 
z"/>
<path fill="#FEFEFE" opacity="1.000000" stroke="none" 
	d="
M1262.468628,389.000000 
	C1263.309448,388.000458 1264.674438,386.079071 1265.918945,386.154236 
	C1272.864502,386.573578 1279.780762,387.476135 1286.853516,388.606750 
	C1278.979126,389.000000 1270.958130,389.000000 1262.468628,389.000000 
z"/>
<path fill="#FFFFFF" opacity="1.000000" stroke="none" 
	d="
M2001.000000,117.583336 
	C1998.043823,117.542259 1995.087646,117.084518 1992.154175,116.630310 
	C1992.655273,110.387383 1996.859985,112.697174 2000.592529,112.999916 
	C2001.000000,114.388893 2001.000000,115.777779 2001.000000,117.583336 
z"/>
<path fill="#FEFEFE" opacity="1.000000" stroke="none" 
	d="
M1645.696533,342.978241 
	C1632.257568,343.249969 1619.559326,341.403137 1606.778687,339.243378 
	C1594.767090,337.213531 1583.557373,333.305756 1572.377930,328.861603 
	C1555.177612,322.024017 1538.945557,313.477600 1524.367798,302.002167 
	C1518.796387,297.616455 1513.073853,293.295807 1508.209717,288.192932 
	C1505.844971,285.712067 1505.297363,281.498962 1503.574463,277.187073 
	C1514.037476,276.469208 1521.033447,280.097778 1527.440430,285.878723 
	C1537.661011,295.100800 1549.017090,302.643402 1561.633057,308.315796 
	C1568.576050,311.437592 1574.974243,315.977325 1582.119263,318.398895 
	C1595.454468,322.918335 1608.516602,328.713623 1623.019043,329.086609 
	C1628.691162,329.232483 1634.455078,329.856476 1639.965454,331.158875 
	C1646.044556,332.595734 1648.689087,334.892395 1645.696533,342.978241 
z"/>
<path fill="#FEFEFE" opacity="1.000000" stroke="none" 
	d="
M1599.742432,309.312683 
	C1591.250854,306.015900 1582.909912,303.355133 1575.040527,299.683655 
	C1573.270874,298.858063 1573.148071,294.502777 1572.002075,290.951172 
	C1583.541504,291.059570 1593.413208,293.297089 1603.014160,296.603668 
	C1607.813843,298.256653 1612.285400,300.858612 1616.913574,303.013702 
	C1621.562134,305.178223 1623.170410,308.686249 1621.250977,314.864441 
	C1614.244873,313.118134 1607.154053,311.350708 1599.742432,309.312683 
z"/>
<path fill="#FFFFFF" opacity="1.000000" stroke="none" 
	d="
M1918.671753,319.276672 
	C1908.216064,317.688965 1898.129639,315.542816 1887.978760,315.175446 
	C1869.725220,314.514862 1852.489624,310.713135 1836.385132,302.034882 
	C1835.551270,301.585541 1834.750366,301.074860 1833.429443,300.294586 
	C1834.505615,299.552460 1835.230103,299.107727 1835.890137,298.582245 
	C1836.527466,298.074829 1837.098389,297.484253 1837.657715,296.968018 
	C1848.783081,302.786438 1860.209595,307.402100 1872.584473,308.909973 
	C1879.426758,309.743652 1886.376831,309.829132 1893.283936,309.965240 
	C1907.552246,310.246429 1921.030029,313.738617 1933.998779,319.492920 
	C1935.605469,320.205872 1937.232544,320.872589 1939.142334,321.684998 
	C1937.404053,324.301270 1935.696899,325.756287 1932.116699,324.123657 
	C1927.921265,322.210358 1923.394775,321.022461 1918.671753,319.276672 
z"/>
<path fill="#FFFFFF" opacity="1.000000" stroke="none" 
	d="
M1916.204102,296.978638 
	C1912.098511,296.307098 1908.464966,295.423859 1904.779663,295.043884 
	C1893.908936,293.923187 1882.919434,293.591675 1872.167603,291.801941 
	C1864.567627,290.536865 1857.278687,287.402191 1849.050049,284.854126 
	C1850.926514,282.765533 1852.092896,281.467285 1853.194336,280.241272 
	C1867.298828,286.338531 1881.644165,289.960175 1896.934814,290.090149 
	C1914.863403,290.242584 1932.239624,293.458984 1948.363281,301.824585 
	C1950.874268,303.127380 1953.355103,304.488373 1956.080933,305.946045 
	C1955.195679,307.231323 1954.231567,308.631104 1953.813477,309.238220 
	C1943.235107,305.387787 1933.061157,301.618835 1922.828003,298.017761 
	C1920.889648,297.335693 1918.717041,297.320038 1916.204102,296.978638 
z"/>
<path fill="#FFFFFF" opacity="1.000000" stroke="none" 
	d="
M1952.339111,279.739899 
	C1957.666260,282.387909 1962.726685,284.699982 1967.597900,287.358582 
	C1968.330688,287.758453 1968.179443,289.777893 1968.437256,291.048126 
	C1966.825806,291.053741 1964.998291,291.564178 1963.638184,290.982269 
	C1955.390625,287.453552 1947.413086,283.241119 1939.031372,280.092926 
	C1928.932861,276.299805 1918.316284,274.564117 1907.461182,275.015198 
	C1893.115112,275.611328 1879.427124,272.687714 1865.831299,267.566589 
	C1867.431519,263.987122 1869.288696,263.002747 1873.259521,264.559723 
	C1884.621704,269.014862 1896.624634,269.805603 1908.745972,270.083344 
	C1923.720337,270.426544 1938.390381,272.705933 1952.339111,279.739899 
z"/>
<path fill="#FFFFFF" opacity="1.000000" stroke="none" 
	d="
M1911.934204,255.000000 
	C1901.365845,254.846710 1891.457031,253.721039 1881.776733,249.661041 
	C1883.233521,246.496735 1884.781860,245.726532 1888.351440,246.526047 
	C1895.898315,248.216415 1903.679565,249.884735 1911.347900,249.811798 
	C1932.535522,249.610306 1952.358276,254.309128 1971.080078,264.022644 
	C1973.785522,265.426361 1976.400513,267.007629 1979.034302,268.546082 
	C1982.207886,270.399811 1983.502441,272.437744 1979.096436,275.023132 
	C1959.223389,261.243805 1936.772461,254.896515 1911.934204,255.000000 
z"/>
<path fill="#FFFFFF" opacity="1.000000" stroke="none" 
	d="
M1916.900635,230.000046 
	C1920.612183,230.333435 1923.874634,231.056412 1927.106079,230.937805 
	C1951.044678,230.059189 1972.168213,238.002594 1991.675415,251.176117 
	C1992.841431,251.963547 1994.001465,252.759842 1995.847900,254.017929 
	C1994.369507,255.276657 1993.290771,256.195129 1992.661377,256.730927 
	C1982.658081,251.726639 1973.267578,246.413483 1963.387451,242.267136 
	C1954.333496,238.467560 1944.703857,236.388611 1934.730469,235.921570 
	C1922.502686,235.348907 1910.302124,234.196091 1897.773438,233.270752 
	C1898.457275,229.023117 1899.935181,227.442383 1903.881836,228.322189 
	C1907.987427,229.237442 1912.245605,229.469254 1916.900635,230.000046 
z"/>
<path fill="#FFFFFF" opacity="1.000000" stroke="none" 
	d="
M1902.823120,332.015686 
	C1905.887207,332.834564 1908.516479,333.635620 1911.145874,334.436707 
	C1911.093140,335.114929 1911.040405,335.793152 1910.987793,336.471375 
	C1906.944580,336.636047 1902.881226,337.129395 1898.863525,336.882019 
	C1893.862427,336.574188 1888.879272,334.974945 1883.922485,335.117615 
	C1862.653564,335.729919 1842.868286,330.653137 1824.216797,320.667755 
	C1822.132812,319.552124 1820.025513,318.479919 1817.601318,317.216827 
	C1819.802124,314.441010 1821.170288,313.219482 1825.005859,315.236084 
	C1839.287842,322.745270 1854.008911,329.026825 1870.709961,329.112396 
	C1880.206665,329.161072 1889.699585,330.310974 1899.188721,331.036774 
	C1900.273438,331.119690 1901.322754,331.666260 1902.823120,332.015686 
z"/>
<path fill="#FFFFFF" opacity="1.000000" stroke="none" 
	d="
M1747.741821,311.245239 
	C1729.348145,300.060577 1717.818481,295.887177 1699.185059,292.609802 
	C1699.185059,291.227081 1699.185059,289.811432 1699.185059,287.474487 
	C1705.595215,288.800201 1711.888184,289.455078 1717.728516,291.441071 
	C1730.803711,295.887299 1743.462158,301.414246 1754.504883,309.949036 
	C1759.013184,313.433563 1763.487305,317.055847 1767.410034,321.157715 
	C1768.935547,322.752991 1768.898071,325.843323 1769.849609,329.242493 
	C1761.910034,322.794861 1754.959839,317.150665 1747.741821,311.245239 
z"/>
<path fill="#FFFFFF" opacity="1.000000" stroke="none" 
	d="
M1805.654297,329.251282 
	C1819.081909,338.132477 1833.303589,344.540894 1848.600708,347.770844 
	C1857.503662,349.650696 1866.870483,349.340790 1876.030518,349.988007 
	C1877.276489,350.076019 1878.534058,350.000122 1881.297363,350.000122 
	C1877.721069,352.843018 1876.453369,356.006775 1871.960327,354.231384 
	C1869.362915,353.205017 1866.034058,353.892029 1863.043579,354.021118 
	C1848.906128,354.631470 1835.889648,350.316864 1823.312134,344.612488 
	C1815.609985,341.119354 1808.291138,336.781006 1799.688354,332.234680 
	C1802.222534,330.799744 1803.780029,329.917938 1805.654297,329.251282 
z"/>
<path fill="#FFFFFF" opacity="1.000000" stroke="none" 
	d="
M1737.074463,280.981293 
	C1726.414062,275.974915 1715.537231,273.355682 1704.039307,272.693024 
	C1705.057739,267.110809 1708.315430,268.531281 1712.371826,268.758911 
	C1725.329224,269.485992 1736.732178,274.756897 1747.945068,280.198364 
	C1755.699585,283.961548 1762.654053,289.430023 1769.778198,294.405212 
	C1772.272583,296.147095 1774.984863,298.524323 1771.186523,302.342194 
	C1761.187012,293.230804 1749.953491,286.101624 1737.074463,280.981293 
z"/>
<path fill="#FFFFFF" opacity="1.000000" stroke="none" 
	d="
M1788.453857,343.153809 
	C1797.269775,348.520874 1805.283936,354.730560 1814.281372,358.725586 
	C1824.258789,363.155701 1835.092041,365.710754 1845.649902,368.743530 
	C1848.174927,369.468842 1851.085571,368.851196 1853.913086,369.407501 
	C1851.588501,372.032532 1850.024658,374.002563 1845.451416,373.498962 
	C1833.064697,372.134979 1821.500366,368.595612 1810.652710,362.895416 
	C1800.961914,357.803070 1791.751099,351.797302 1782.328491,346.194580 
	C1782.507202,345.578308 1782.685913,344.962036 1782.864624,344.345764 
	C1784.604980,343.903748 1786.345337,343.461731 1788.453857,343.153809 
z"/>
<path fill="#FFFFFF" opacity="1.000000" stroke="none" 
	d="
M1752.882324,258.015320 
	C1760.744141,262.435303 1768.201538,266.859100 1775.687500,271.234131 
	C1779.039185,273.192871 1780.330566,275.546967 1777.134277,279.158386 
	C1758.648926,264.723755 1738.042358,254.847092 1713.961304,252.897690 
	C1714.921875,248.412354 1716.838013,247.650299 1721.299438,248.477356 
	C1732.106812,250.480850 1742.627686,253.059235 1752.882324,258.015320 
z"/>
<path fill="#FFFFFF" opacity="1.000000" stroke="none" 
	d="
M1780.662354,248.249466 
	C1782.197998,249.506958 1783.422729,250.547012 1784.900757,251.802109 
	C1784.517944,252.977997 1784.038696,254.450333 1783.323242,256.648071 
	C1767.136475,245.012131 1749.711182,236.660339 1729.485352,233.597046 
	C1731.883057,230.627075 1733.669434,229.006622 1737.617920,229.871338 
	C1753.044189,233.249557 1766.984497,239.917877 1780.662354,248.249466 
z"/>
<path fill="#FFFFFF" opacity="1.000000" stroke="none" 
	d="
M1770.362305,223.755096 
	C1766.031250,221.732849 1762.031494,219.921677 1757.968994,218.082138 
	C1766.035034,213.883698 1767.744019,215.799759 1784.873413,225.608505 
	C1786.760010,226.688843 1787.655396,229.500229 1789.010376,231.508804 
	C1788.594482,231.862000 1788.178467,232.215210 1787.762451,232.568420 
	C1782.072876,229.700989 1776.383179,226.833572 1770.362305,223.755096 
z"/>
</svg>