<?xml version="1.0" encoding="UTF-8"?><svg id="h" xmlns="http://www.w3.org/2000/svg" width="47.44mm" height="12.52mm" viewBox="0 0 134.47 35.5"><polygon points="27.25 1.83 1.86 1.83 14.56 17.33 27.25 1.83" fill="#0070a1" stroke-width="0"/><path d="m14.56,32.84c2.07-1.64,4.78-3.76,7.12-6.8H7.43c2.35,3.04,5.06,5.16,7.12,6.8Z" fill="#0070a1" stroke-width="0"/><path d="m3.24,17.33c.26,1.1.57,2.13.94,3.04.88,2.19,2.02,4.06,3.26,5.66,0,0,0,0,0,0l7.12-8.7H3.24Z" fill="#0070a1" stroke-width="0"/><path d="m27.25,1.83l-12.69,15.51h0s-7.12,8.7-7.12,8.7h0s14.25,0,14.25,0h0s0,0,0,0c1.24-1.61,2.37-3.47,3.26-5.66.37-.91.68-1.94.94-3.04,1.56-6.55,1.37-15.51,1.37-15.51Z" fill="#dfdfe0" stroke-width="0"/><path d="m14.56,17.33L1.86,1.83s-.18,8.95,1.37,15.51h11.32Z" fill="#dfdfe0" stroke-width="0"/><path d="m39.65,11.1h-1.21l-3.54-9.27h1.64l2.57,7.1h.01l2.6-7.1h1.56l-3.64,9.27Z" fill="#1e1e1c" stroke-width="0"/><path d="m46.56,10.11c.89,0,1.54-.33,1.95-1.06l.95.62c-.69,1.09-1.59,1.59-2.97,1.59-2.11,0-3.34-1.52-3.34-3.5s1.46-3.52,3.34-3.52,3.11,1.32,3.11,3.11c0,.24-.03.54-.07.74h-5.01c.09,1.1.83,2.01,2.03,2.01Zm-.04-4.73c-1.03,0-1.67.73-1.91,1.67h3.58c-.05-.91-.73-1.67-1.67-1.67Z" fill="#1e1e1c" stroke-width="0"/><path d="m54.56,5.87c-.3-.28-.85-.52-1.32-.52-.54,0-.91.32-.91.8s.61.73,1.23.98c.87.34,1.96.82,1.96,2.01,0,1.5-1.19,2.12-2.46,2.12-.95,0-1.83-.37-2.41-1.07l.9-.78c.46.48.93.73,1.5.73s1.11-.29,1.11-.91c0-.52-.61-.76-1.27-1.02-.87-.36-1.87-.76-1.87-1.95,0-1.36,1.07-2.01,2.23-2.01.79,0,1.56.26,2.12.77l-.8.86Z" fill="#1e1e1c" stroke-width="0"/><path d="m58.74,5.58v2.91c0,.17,0,.33.01.53.04.64.25,1.01.85,1.01.29,0,.54-.08.76-.19l.4,1.07c-.36.2-.87.32-1.34.32-.97,0-1.58-.45-1.84-1.14-.15-.37-.2-.83-.2-1.32v-3.19h-.87v-1.18h.87l.07-1.58h1.3v1.58h1.84v1.18h-1.84Z" fill="#1e1e1c" stroke-width="0"/><path d="m63.53,11.1h-1.36V1.83h1.36v9.27Z" fill="#1e1e1c" stroke-width="0"/><path d="m69.6,11.1l-.04-.68c-.52.6-1.14.83-1.96.83-1.25,0-2.38-.64-2.38-2.07,0-1.68,1.51-2.21,2.97-2.21.34,0,.77.04,1.31.15v-.2c0-.98-.45-1.55-1.52-1.55-.77,0-1.55.29-2.11.6l-.38-1.1c.73-.34,1.76-.64,2.7-.64,1.92,0,2.68,1.06,2.68,2.8v4.07h-1.26Zm-.11-3.02c-.46-.09-.81-.12-1.14-.12-.78,0-1.8.21-1.8,1.17,0,.76.58,1.05,1.25,1.05s1.19-.32,1.7-.74v-1.35Z" fill="#1e1e1c" stroke-width="0"/><path d="m74.14,4.4l.04,1.06c.5-.78,1.31-1.22,2.17-1.22s1.51.32,1.91.85c.46.64.6,1.52.6,2.53v3.48h-1.36v-3.37c0-.61-.03-1.29-.32-1.75-.2-.32-.56-.52-1.1-.52-.72,0-1.43.49-1.87,1.19v4.44h-1.36v-6.7h1.3Z" fill="#1e1e1c" stroke-width="0"/><path d="m87.08,11.1h-1.3l-.04-.89c-.48.7-1.35,1.05-2.13,1.05-1.89,0-3.29-1.56-3.29-3.52,0-1.8,1.32-3.5,3.31-3.5.76,0,1.55.32,2.08.87V1.83h1.36v9.27Zm-3.22-5.63c-1.46,0-2.15,1.19-2.15,2.29,0,1.19.81,2.27,2.12,2.27.69,0,1.54-.4,1.88-1.19v-2.4c-.45-.64-1.19-.97-1.85-.97Z" fill="#1e1e1c" stroke-width="0"/><path d="m39.4,17.37c-.26-.13-.53-.2-.87-.2s-.56.08-.72.21c-.26.24-.3.66-.3,1.21v.74h1.34l.45,1.18h-1.79v5.52h-1.36v-5.52h-.87v-1.18h.87v-.86c0-.72.13-1.32.44-1.76.34-.49.9-.77,1.82-.77.48,0,.99.13,1.4.32l-.4,1.11Z" fill="#1e1e1c" stroke-width="0"/><path d="m41.28,19.33l1.64,4.82h.03l1.7-4.82h1.48l-3.78,9.74-1.21-.48,1.06-2.81-2.44-6.45h1.51Z" fill="#1e1e1c" stroke-width="0"/><path d="m48.71,26.03h-1.36v-9.27h1.36v9.27Z" fill="#1e1e1c" stroke-width="0"/><path d="m52.29,22.54h.03s2.58-3.21,2.58-3.21h1.64l-2.37,2.76,2.57,3.95h-1.64l-1.83-2.89-.98,1.14v1.75h-1.36v-9.27h1.36v5.78Z" fill="#1e1e1c" stroke-width="0"/><path d="m60.6,25.04c.89,0,1.54-.33,1.95-1.06l.95.62c-.69,1.09-1.59,1.59-2.97,1.59-2.11,0-3.34-1.52-3.34-3.5s1.46-3.52,3.34-3.52,3.11,1.32,3.11,3.11c0,.24-.03.54-.07.74h-5.01c.09,1.1.83,2.01,2.03,2.01Zm-.04-4.73c-1.03,0-1.67.73-1.91,1.67h3.58c-.05-.91-.73-1.67-1.67-1.67Z" fill="#1e1e1c" stroke-width="0"/><path d="m68.61,20.8c-.3-.28-.85-.52-1.32-.52-.54,0-.91.32-.91.8s.61.73,1.23.98c.87.34,1.96.82,1.96,2.01,0,1.5-1.19,2.12-2.46,2.12-.95,0-1.83-.37-2.41-1.07l.9-.78c.46.48.93.73,1.5.73s1.11-.29,1.11-.91c0-.52-.61-.76-1.27-1.02-.87-.36-1.87-.76-1.87-1.95,0-1.36,1.07-2.01,2.23-2.01.79,0,1.56.26,2.12.77l-.8.86Z" fill="#1e1e1c" stroke-width="0"/><path d="m72.61,22.54h.03s2.58-3.21,2.58-3.21h1.64l-2.37,2.76,2.57,3.95h-1.64l-1.83-2.89-.98,1.14v1.75h-1.36v-9.27h1.36v5.78Z" fill="#1e1e1c" stroke-width="0"/><path d="m84.37,22.68c0,1.96-1.47,3.51-3.44,3.51s-3.44-1.55-3.44-3.51,1.46-3.51,3.44-3.51,3.44,1.55,3.44,3.51Zm-3.44-2.28c-1.19,0-2.05,1.02-2.05,2.28s.86,2.28,2.05,2.28,2.05-1.03,2.05-2.28-.86-2.28-2.05-2.28Z" fill="#1e1e1c" stroke-width="0"/><path d="m94.63,26.03v-3.37c0-.61-.01-1.29-.29-1.75-.2-.32-.56-.52-1.09-.52-.61,0-1.27.41-1.72,1.02.04.34.07.73.07,1.13v3.48h-1.36v-3.37c0-.61-.01-1.34-.33-1.8-.19-.29-.5-.46-.98-.46-.64,0-1.31.53-1.72,1.09v4.54h-1.36v-6.7h1.3l.03.97c.52-.7,1.34-1.13,2.08-1.13s1.43.29,1.84.91c.07.09.12.2.16.29.58-.83,1.44-1.21,2.31-1.21s1.44.3,1.83.81c.49.64.62,1.55.62,2.57v3.48h-1.36Z" fill="#1e1e1c" stroke-width="0"/><path d="m106.78,26.03v-3.37c0-.61-.01-1.29-.29-1.75-.2-.32-.56-.52-1.09-.52-.61,0-1.27.41-1.72,1.02.04.34.07.73.07,1.13v3.48h-1.36v-3.37c0-.61-.01-1.34-.33-1.8-.19-.29-.5-.46-.98-.46-.64,0-1.31.53-1.72,1.09v4.54h-1.36v-6.7h1.3l.03.97c.52-.7,1.34-1.13,2.08-1.13s1.43.29,1.84.91c.07.09.12.2.16.29.58-.83,1.44-1.21,2.31-1.21s1.44.3,1.83.81c.49.64.62,1.55.62,2.57v3.48h-1.36Z" fill="#1e1e1c" stroke-width="0"/><path d="m114.77,26.03l-.04-1.06c-.5.78-1.31,1.22-2.17,1.22s-1.51-.32-1.91-.85c-.46-.64-.6-1.52-.6-2.53v-3.48h1.36v3.37c0,.61.03,1.29.32,1.75.2.32.56.52,1.1.52.72,0,1.43-.49,1.87-1.19v-4.44h1.36v6.7h-1.3Z" fill="#1e1e1c" stroke-width="0"/><path d="m119.42,19.33l.04,1.06c.5-.78,1.31-1.22,2.17-1.22s1.51.32,1.91.85c.46.64.6,1.52.6,2.53v3.48h-1.36v-3.37c0-.61-.03-1.29-.32-1.75-.2-.32-.56-.52-1.1-.52-.72,0-1.43.49-1.87,1.19v4.44h-1.36v-6.7h1.3Z" fill="#1e1e1c" stroke-width="0"/><path d="m128.99,25.04c.89,0,1.54-.33,1.95-1.06l.95.62c-.69,1.09-1.59,1.59-2.97,1.59-2.11,0-3.34-1.52-3.34-3.5s1.46-3.52,3.34-3.52,3.11,1.32,3.11,3.11c0,.24-.03.54-.07.74h-5.01c.09,1.1.83,2.01,2.03,2.01Zm-.04-4.73c-1.03,0-1.67.73-1.91,1.67h3.58c-.05-.91-.73-1.67-1.67-1.67Z" fill="#1e1e1c" stroke-width="0"/><polygon points="27.31 1.79 1.86 1.79 14.58 17.33 27.31 1.79" fill="#0070a1" stroke-width="0"/><path d="m14.58,32.88c2.07-1.65,4.79-3.77,7.14-6.82H7.44c2.35,3.05,5.07,5.17,7.14,6.82Z" fill="#0070a1" stroke-width="0"/><path d="m3.23,17.33c.26,1.1.57,2.13.94,3.04.89,2.2,2.03,4.07,3.27,5.68,0,0,0,0,0,0l7.14-8.72H3.23Z" fill="#0070a1" stroke-width="0"/><path d="m27.31,1.79l-12.73,15.54h0s-7.14,8.72-7.14,8.72h0s14.28,0,14.28,0h0s0,0,0,0c1.24-1.61,2.38-3.48,3.27-5.68.37-.91.68-1.94.94-3.04,1.56-6.57,1.38-15.54,1.38-15.54Z" fill="#dfdfe0" stroke-width="0"/><path d="m14.58,17.33L1.86,1.79s-.18,8.97,1.38,15.54h11.35Z" fill="#dfdfe0" stroke-width="0"/></svg>